<svg xmlns="http://www.w3.org/2000/svg" viewBox="0 0 64 64"><path d="M20.631 59.203a7.973 7.973 0 0 1-2.885-.543l-.395-.152a8.01 8.01 0 0 1-4.579-10.346l.077-.198 15.318 5.92-.076.197a8.02 8.02 0 0 1-7.46 5.122zM52.892 14.9A17.436 17.436 0 0 0 39.91 9.04a17.514 17.514 0 0 0-1.915.105 8.52 8.52 0 0 1 .49-1.89 8.27 8.27 0 0 1 7.668-5.253 8.218 8.218 0 0 1 7.65 11.172 8.55 8.55 0 0 1-.91 1.727z" style="fill:#ffb125"/><path d="M50.115 61.999a5.099 5.099 0 0 1-1.843-.345L9.977 46.855a5.131 5.131 0 0 1-2.937-6.636 10.31 10.31 0 0 1 6.788-6.18 10.314 10.314 0 0 0 6.79-6.18l2.96-7.659a17.449 17.449 0 0 1 32.551 12.58l-2.96 7.658a10.316 10.316 0 0 0 .87 9.14 10.31 10.31 0 0 1 .87 9.138A5.17 5.17 0 0 1 50.115 62z" style="fill:#fcd354"/><path d="M57.066 33.14a18.45 18.45 0 0 0-2.95-18.33 9.435 9.435 0 0 0 .623-1.276 9.211 9.211 0 0 0-17.183-6.64 9.453 9.453 0 0 0-.396 1.354A18.362 18.362 0 0 0 22.65 19.84l-2.96 7.66a9.31 9.31 0 0 1-6.128 5.577 11.315 11.315 0 0 0-7.45 6.781 6.13 6.13 0 0 0 3.509 7.93l1.977.764a9.009 9.009 0 0 0 5.398 10.889l.393.151a8.986 8.986 0 0 0 11.319-4.428l19.209 7.423a6.13 6.13 0 0 0 7.93-3.51 11.316 11.316 0 0 0-.954-10.03 9.31 9.31 0 0 1-.786-8.248zM18.11 57.726h-.001l-.393-.152a7.011 7.011 0 0 1-4.25-8.301l13.371 5.166a6.998 6.998 0 0 1-8.727 3.287zM39.421 7.614a7.211 7.211 0 1 1 13.453 5.199q-.083.215-.18.425l-.01-.01A18.468 18.468 0 0 0 39.27 8.047q.07-.22.151-.433zm13.775 42.493a9.308 9.308 0 0 1 .785 8.249 4.133 4.133 0 0 1-5.344 2.365l-38.296-14.8a4.132 4.132 0 0 1-2.364-5.343A9.308 9.308 0 0 1 14.105 35a11.316 11.316 0 0 0 7.45-6.78l2.96-7.66A16.449 16.449 0 1 1 55.201 32.42l-2.96 7.659a11.319 11.319 0 0 0 .955 10.029z" style="fill:#231e23"/></svg>