<svg xmlns="http://www.w3.org/2000/svg" viewBox="0 0 48 48">
  <path fill="#4285F4" d="M24 9.5c3.9 0 7.2 1.3 9.8 3.8l7.2-7.2C37.2 2.4 31.1 0 24 0 14.6 0 6.4 5.4 2.4 13.3l8.6 6.7C12.9 13.3 17.9 9.5 24 9.5z"/>
  <path fill="#34A853" d="M46.5 24.5c0-1.6-.1-3.1-.4-4.5H24v9h12.7c-.5 2.5-1.9 4.6-3.9 6l6.1 4.7c3.6-3.3 5.6-8.1 5.6-15.2z"/>
  <path fill="#FBBC05" d="M11 28c-1.2-3.4-1.2-7.2 0-10.6l-8.6-6.7C.8 15.1 0 19.4 0 24c0 4.6.8 8.9 2.4 12.7L11 28z"/>
  <path fill="#EA4335" d="M24 48c6.5 0 12-2.1 16-5.7l-6.1-4.7c-2.2 1.5-5 2.4-9.9 2.4-6.1 0-11.1-3.8-12.9-9.1l-8.6 6.7C6.4 42.6 14.6 48 24 48z"/>
</svg>
